<?xml version="1.0" standalone="no"?>
<!DOCTYPE svg PUBLIC "-//W3C//DTD SVG 20010904//EN"
 "http://www.w3.org/TR/2001/REC-SVG-20010904/DTD/svg10.dtd">
<svg version="1.0" xmlns="http://www.w3.org/2000/svg"
 width="100.000000pt" height="100.000000pt" viewBox="0 0 100.000000 100.000000"
 preserveAspectRatio="xMidYMid meet">
<metadata>
Created by potrace 1.11, written by Peter Selinger 2001-2013
</metadata>
<g transform="translate(0.000000,100.000000) scale(0.100000,-0.100000)"
fill="#000000" stroke="none">
<path d="M563 895 c-47 -20 -73 -67 -62 -113 23 -103 170 -110 197 -9 22 83
-58 155 -135 122z m79 -29 c20 -9 39 -60 31 -84 -13 -35 -36 -52 -74 -52 -41
0 -77 33 -74 67 6 69 53 97 117 69z"/>
<path d="M617 670 c-9 -6 -37 -42 -62 -79 -24 -37 -57 -74 -72 -81 -77 -39
-103 -61 -103 -85 0 -23 19 -46 21 -26 1 6 2 16 3 23 1 13 83 66 103 67 7 1
35 35 63 77 57 83 81 99 122 78 23 -12 33 -33 70 -149 25 -78 48 -135 56 -135
6 0 12 3 12 6 0 25 -86 267 -100 284 -22 25 -86 36 -113 20z"/>
<path d="M585 482 c-10 -16 -37 -39 -61 -51 -42 -20 -51 -30 -38 -44 7 -6 70
28 100 55 22 20 22 20 34 -19 15 -46 27 -61 35 -42 7 18 -28 122 -42 126 -6 2
-19 -9 -28 -25z"/>
<path d="M83 455 c-96 -41 -79 -178 24 -192 99 -13 156 102 84 170 -32 32 -68
39 -108 22z m79 -30 c23 -9 39 -60 29 -88 -13 -34 -38 -50 -73 -49 -68 2 -96
84 -44 129 26 22 47 24 88 8z"/>
<path d="M288 361 c-13 -11 -41 -49 -63 -85 -24 -39 -45 -64 -53 -61 -7 2 -41
7 -76 11 -63 6 -64 6 -79 -22 -17 -33 -8 -67 20 -78 19 -8 95 -24 153 -32 39
-6 51 3 100 74 l30 42 313 0 c235 0 317 3 329 13 26 20 30 52 11 75 -18 21
-28 23 -173 37 -30 2 -82 7 -115 10 -33 4 -82 8 -110 10 -60 5 -165 14 -222
20 -30 3 -48 -1 -65 -14z m202 -26 c19 -3 69 -7 110 -11 41 -3 91 -7 110 -9
19 -2 73 -6 120 -10 115 -10 113 -10 124 -28 24 -38 0 -41 -333 -42 l-319 0
-39 -57 c-21 -33 -45 -58 -55 -58 -15 0 -65 9 -144 25 -28 6 -37 30 -19 49 12
12 24 12 77 1 35 -8 64 -15 65 -17 2 -2 19 22 39 52 20 30 48 70 61 88 l25 34
72 -7 c39 -3 87 -8 106 -10z"/>
<path d="M335 160 c-3 -6 0 -12 7 -15 26 -10 653 0 653 10 0 14 -651 19 -660
5z"/>
</g>
</svg>
